HIERARCHY
ROOT Hips
{
	OFFSET 0.000000 83.214638 0.000000
	CHANNELS 6 Xposition Yposition Zposition Xrotation Yrotation Zrotation
	JOINT Pelvis
	{
		OFFSET 0.000000 0.000000 0.000000
		CHANNELS 3 Xrotation Yrotation Zrotation
		JOINT LeftUpLeg
		{
			OFFSET 8.479700 -4.795502 -0.379100
			CHANNELS 3 Xrotation Yrotation Zrotation
			JOINT LeftLeg
			{
				OFFSET 0.024144 -32.555107 0.112900
				CHANNELS 3 Xrotation Yrotation Zrotation
				JOINT LeftFoot
				{
					OFFSET -0.024144 -32.638630 -3.012600
					CHANNELS 3 Xrotation Yrotation Zrotation
					JOINT LeftToeBase
					{
						OFFSET 0.970200 -13.225400 11.864200
						CHANNELS 3 Xrotation Yrotation Zrotation
						End Site
						{
							OFFSET 0.000000 12.319262 0.000000
						}
					}
					JOINT LFootTongue
					{
						OFFSET 1.142400 -1.059800 6.665200
						CHANNELS 3 Xrotation Yrotation Zrotation
						End Site
						{
							OFFSET 0.000000 12.319262 0.000000
						}
					}
				}
				JOINT LeftPantLeg
				{
					OFFSET 0.918482 -16.533964 -2.284700
					CHANNELS 3 Xrotation Yrotation Zrotation
					End Site
					{
						OFFSET 0.350399 24.744368 0.000000
					}
				}
			}
		}
		JOINT RightUpLeg
		{
			OFFSET -8.479700 -4.795502 -0.379100
			CHANNELS 3 Xrotation Yrotation Zrotation
			JOINT RightLeg
			{
				OFFSET -0.023144 -32.555092 0.112900
				CHANNELS 3 Xrotation Yrotation Zrotation
				JOINT RightFoot
				{
					OFFSET 0.023144 -32.638641 -3.012700
					CHANNELS 3 Xrotation Yrotation Zrotation
					JOINT RightToeBase
					{
						OFFSET -0.970200 -13.225400 11.864200
						CHANNELS 3 Xrotation Yrotation Zrotation
						End Site
						{
							OFFSET 0.000000 12.319244 0.000000
						}
					}
					JOINT RFootTongue
					{
						OFFSET -1.142200 -1.059800 6.665200
						CHANNELS 3 Xrotation Yrotation Zrotation
						End Site
						{
							OFFSET 0.000000 12.319243 0.000000
						}
					}
				}
				JOINT RightPantLeg
				{
					OFFSET -0.919482 -16.533978 -2.284800
					CHANNELS 3 Xrotation Yrotation Zrotation
					End Site
					{
						OFFSET -0.350400 24.744419 0.000000
					}
				}
			}
		}
	}
	JOINT Spine
	{
		OFFSET 0.000000 7.722000 1.166200
		CHANNELS 3 Xrotation Yrotation Zrotation
		JOINT Spine1
		{
			OFFSET 0.000000 12.024101 0.248800
			CHANNELS 3 Xrotation Yrotation Zrotation
			JOINT Spine2
			{
				OFFSET 0.000000 11.502998 -0.491200
				CHANNELS 3 Xrotation Yrotation Zrotation
				JOINT Neck
				{
					OFFSET 0.000000 18.430702 -3.123100
					CHANNELS 3 Xrotation Yrotation Zrotation
					JOINT Head
					{
						OFFSET 0.000000 9.051102 1.034000
						CHANNELS 3 Xrotation Yrotation Zrotation
						JOINT HairB
						{
							OFFSET 0.208400 24.786102 24.822300
							CHANNELS 3 Xrotation Yrotation Zrotation
							End Site
							{
								OFFSET 0.000000 32.263779 0.000000
							}
						}
						JOINT HairA
						{
							OFFSET -7.081100 24.428299 23.196600
							CHANNELS 3 Xrotation Yrotation Zrotation
							End Site
							{
								OFFSET 0.000000 32.263779 0.000000
							}
						}
						JOINT Hat
						{
							OFFSET 16.728800 15.048294 -15.439601
							CHANNELS 3 Xrotation Yrotation Zrotation
							End Site
							{
								OFFSET 0.000000 32.263779 0.000000
							}
						}
					}
				}
				JOINT LeftShoulder
				{
					OFFSET 6.197800 13.665199 -4.064700
					CHANNELS 3 Xrotation Yrotation Zrotation
					JOINT LeftArm
					{
						OFFSET 7.778100 -0.187103 -1.709300
						CHANNELS 3 Xrotation Yrotation Zrotation
						JOINT LeftForeArm
						{
							OFFSET 22.049376 0.000000 0.000000
							CHANNELS 3 Xrotation Yrotation Zrotation
							JOINT LeftHand
							{
								OFFSET 23.009392 0.000000 0.000000
								CHANNELS 3 Xrotation Yrotation Zrotation
								JOINT LeftHandThumb1
								{
									OFFSET 3.507191 -2.063065 3.133727
									CHANNELS 3 Xrotation Yrotation Zrotation
									JOINT LeftHandThumb2
									{
										OFFSET 3.101337 -1.790558 1.790558
										CHANNELS 3 Xrotation Yrotation Zrotation
										JOINT LeftHandThumb3
										{
											OFFSET 3.058640 -1.765907 1.765906
											CHANNELS 3 Xrotation Yrotation Zrotation
											End Site
											{
												OFFSET -0.415260 3.926476 -0.049563
											}
										}
									}
								}
								JOINT LeftHandIndex1
								{
									OFFSET 11.334419 -0.901459 3.706815
									CHANNELS 3 Xrotation Yrotation Zrotation
									JOINT LeftHandIndex2
									{
										OFFSET 3.283112 0.000000 0.000000
										CHANNELS 3 Xrotation Yrotation Zrotation
										JOINT LeftHandIndex3
										{
											OFFSET 3.323853 0.000000 0.000000
											CHANNELS 3 Xrotation Yrotation Zrotation
											End Site
											{
												OFFSET -1.135597 3.097809 0.402452
											}
										}
									}
								}
								JOINT LeftHandMiddle1
								{
									OFFSET 11.335861 0.000000 0.000000
									CHANNELS 3 Xrotation Yrotation Zrotation
									JOINT LeftHandMiddle2
									{
										OFFSET 3.410492 0.000000 0.000000
										CHANNELS 3 Xrotation Yrotation Zrotation
										JOINT LeftHandMiddle3
										{
											OFFSET 3.312172 0.000000 0.000000
											CHANNELS 3 Xrotation Yrotation Zrotation
											End Site
											{
												OFFSET -1.150200 3.080154 0.400270
											}
										}
									}
								}
								JOINT LeftHandRing1
								{
									OFFSET 11.514786 -0.013176 -3.003090
									CHANNELS 3 Xrotation Yrotation Zrotation
									JOINT LeftHandRing2
									{
										OFFSET 3.053307 0.000000 0.000000
										CHANNELS 3 Xrotation Yrotation Zrotation
										JOINT LeftHandRing3
										{
											OFFSET 3.295807 0.000000 0.000000
											CHANNELS 3 Xrotation Yrotation Zrotation
											End Site
											{
												OFFSET -1.281006 3.013344 0.375733
											}
										}
									}
								}
								JOINT LeftHandPinky1
								{
									OFFSET 10.518692 -0.960396 -5.730441
									CHANNELS 3 Xrotation Yrotation Zrotation
									JOINT LeftHandPinky2
									{
										OFFSET 2.861649 0.000000 0.000000
										CHANNELS 3 Xrotation Yrotation Zrotation
										JOINT LeftHandPinky3
										{
											OFFSET 2.863380 0.000000 0.000000
											CHANNELS 3 Xrotation Yrotation Zrotation
											End Site
											{
												OFFSET -0.843597 2.711159 0.369971
											}
										}
									}
								}
							}
							JOINT LSleeve
							{
								OFFSET 6.676277 -0.344902 -1.011730
								CHANNELS 3 Xrotation Yrotation Zrotation
								End Site
								{
									OFFSET 0.000000 14.885353 0.000000
								}
							}
						}
					}
				}
				JOINT RightShoulder
				{
					OFFSET -6.197800 13.665199 -4.064700
					CHANNELS 3 Xrotation Yrotation Zrotation
					JOINT RightArm
					{
						OFFSET -7.778100 -0.187103 -1.709300
						CHANNELS 3 Xrotation Yrotation Zrotation
						JOINT RightForeArm
						{
							OFFSET -22.049376 0.000000 0.000000
							CHANNELS 3 Xrotation Yrotation Zrotation
							JOINT RightHand
							{
								OFFSET -23.009392 0.000000 0.000000
								CHANNELS 3 Xrotation Yrotation Zrotation
								JOINT RightHandThumb1
								{
									OFFSET -3.507191 -2.063065 3.133727
									CHANNELS 3 Xrotation Yrotation Zrotation
									JOINT RightHandThumb2
									{
										OFFSET -3.101337 -1.790558 1.790558
										CHANNELS 3 Xrotation Yrotation Zrotation
										JOINT RightHandThumb3
										{
											OFFSET -3.058640 -1.765907 1.765906
											CHANNELS 3 Xrotation Yrotation Zrotation
											End Site
											{
												OFFSET 0.415260 3.926476 -0.049563
											}
										}
									}
								}
								JOINT RightHandIndex1
								{
									OFFSET -11.334419 -0.901459 3.706815
									CHANNELS 3 Xrotation Yrotation Zrotation
									JOINT RightHandIndex2
									{
										OFFSET -3.283112 0.000000 0.000000
										CHANNELS 3 Xrotation Yrotation Zrotation
										JOINT RightHandIndex3
										{
											OFFSET -3.323853 0.000000 0.000000
											CHANNELS 3 Xrotation Yrotation Zrotation
											End Site
											{
												OFFSET 1.135597 3.097809 0.402452
											}
										}
									}
								}
								JOINT RightHandMiddle1
								{
									OFFSET -11.335861 0.000000 0.000000
									CHANNELS 3 Xrotation Yrotation Zrotation
									JOINT RightHandMiddle2
									{
										OFFSET -3.410492 0.000000 0.000000
										CHANNELS 3 Xrotation Yrotation Zrotation
										JOINT RightHandMiddle3
										{
											OFFSET -3.312172 0.000000 0.000000
											CHANNELS 3 Xrotation Yrotation Zrotation
											End Site
											{
												OFFSET 1.150200 3.080154 0.400270
											}
										}
									}
								}
								JOINT RightHandRing1
								{
									OFFSET -11.514786 -0.013176 -3.003090
									CHANNELS 3 Xrotation Yrotation Zrotation
									JOINT RightHandRing2
									{
										OFFSET -3.053307 0.000000 0.000000
										CHANNELS 3 Xrotation Yrotation Zrotation
										JOINT RightHandRing3
										{
											OFFSET -3.295807 0.000000 0.000000
											CHANNELS 3 Xrotation Yrotation Zrotation
											End Site
											{
												OFFSET 1.281006 3.013344 0.375733
											}
										}
									}
								}
								JOINT RightHandPinky1
								{
									OFFSET -10.518692 -0.960396 -5.730441
									CHANNELS 3 Xrotation Yrotation Zrotation
									JOINT RightHandPinky2
									{
										OFFSET -2.861649 0.000000 0.000000
										CHANNELS 3 Xrotation Yrotation Zrotation
										JOINT RightHandPinky3
										{
											OFFSET -2.863380 0.000000 0.000000
											CHANNELS 3 Xrotation Yrotation Zrotation
											End Site
											{
												OFFSET 0.843597 2.711159 0.369971
											}
										}
									}
								}
							}
							JOINT RSleeve
							{
								OFFSET -6.676277 -0.344902 -1.011730
								CHANNELS 3 Xrotation Yrotation Zrotation
								End Site
								{
									OFFSET 0.000000 14.885353 0.000000
								}
							}
						}
					}
				}
				JOINT Backpack
				{
					OFFSET 0.000000 -2.471497 36.677502
					CHANNELS 3 Xrotation Yrotation Zrotation
					End Site
					{
						OFFSET 0.000000 20.427315 0.000000
					}
				}
				JOINT Hood
				{
					OFFSET 0.000000 18.754097 -10.431000
					CHANNELS 3 Xrotation Yrotation Zrotation
					JOINT Hood1
					{
						OFFSET 0.000000 -5.011002 -7.685901
						CHANNELS 3 Xrotation Yrotation Zrotation
						End Site
						{
							OFFSET 0.000000 9.175140 0.000000
						}
					}
				}
				JOINT LHoodieString
				{
					OFFSET 5.250500 16.397697 3.089900
					CHANNELS 3 Xrotation Yrotation Zrotation
					JOINT LHoodieString1
					{
						OFFSET 0.257700 -6.364304 3.694600
						CHANNELS 3 Xrotation Yrotation Zrotation
						JOINT LHoodieString2
						{
							OFFSET 0.000000 -9.643799 2.679100
							CHANNELS 3 Xrotation Yrotation Zrotation
							End Site
							{
								OFFSET 0.000000 10.009018 0.000000
							}
						}
					}
				}
				JOINT RHoodieString
				{
					OFFSET -5.250500 16.397697 3.089900
					CHANNELS 3 Xrotation Yrotation Zrotation
					JOINT RHoodieString1
					{
						OFFSET -0.257700 -6.364304 3.694600
						CHANNELS 3 Xrotation Yrotation Zrotation
						JOINT RHoodieString2
						{
							OFFSET 0.000000 -9.643799 2.679100
							CHANNELS 3 Xrotation Yrotation Zrotation
							End Site
							{
								OFFSET 0.000000 10.009018 0.000000
							}
						}
					}
				}
			}
			JOINT LBackpack_Strap
			{
				OFFSET 15.223200 -7.719803 -6.610900
				CHANNELS 3 Xrotation Yrotation Zrotation
				End Site
				{
					OFFSET 0.000000 16.040596 0.000000
				}
			}
			JOINT RBackpack_Strap
			{
				OFFSET -15.223000 -7.719803 -6.610900
				CHANNELS 3 Xrotation Yrotation Zrotation
				End Site
				{
					OFFSET 0.000000 16.040596 0.000000
				}
			}
		}
	}
	JOINT BoyFacialAnim_Joint
	{
		OFFSET 1.000000 -82.208099 -1.550900
		CHANNELS 3 Xrotation Yrotation Zrotation
		End Site
		{
			OFFSET 0.000000 30.012791 0.000000
		}
	}
}
MOTION
Frames: 4
Frame Time: 0.033333
3.205148 81.758179 0.311977 -3.270776 5.494062 -0.693355 -0.000000 -0.000001 0.000000 -8.648853 5.936438 1.525663 20.866158 -7.790341 5.323563 -8.213347 12.757424 -3.387367 -0.000000 -0.000002 -0.000000 -0.000000 -0.000002 0.000000 -0.000000 -0.000000 -0.000000 -3.631946 -8.343808 -3.384802 11.209058 8.681987 -10.021070 0.014825 -20.499826 12.170708 -0.000000 -0.000000 0.000000 -0.000000 -0.000000 0.000000 -0.000000 -0.000001 0.000001 8.174883 0.658317 -1.541711 3.097577 0.299729 -0.647859 3.097433 0.298003 -0.649281 6.409514 -1.152884 -1.146924 6.700165 -5.261772 -6.985528 0.000000 0.000001 0.000001 0.000000 0.000001 0.000001 0.000000 0.000001 0.000001 0.591876 -2.699199 -10.180390 -13.591564 -32.925063 -62.656078 0.000039 -72.781546 0.000029 -30.215514 7.733238 8.949664 -2.039511 -1.680773 1.041032 3.927302 7.736832 0.715246 -0.000000 0.000000 0.000002 -3.771595 2.087536 -61.943061 2.146591 4.999114 -46.454914 -0.000002 -0.000001 -0.000002 -1.085831 2.928965 -56.052607 2.462186 5.279980 -49.976894 0.000000 -0.000001 0.000000 1.001673 4.336924 -55.925500 2.427598 5.250876 -49.600028 -0.000000 -0.000000 -0.000004 4.660450 6.899438 -53.746096 4.330896 2.305880 -68.263595 -0.000001 0.000001 -0.000004 0.000001 -0.000000 -0.000000 0.382111 6.601336 14.485008 -17.961244 42.679096 55.211981 -0.000051 65.909208 0.000044 -15.553927 -1.895968 -18.297744 -4.463749 4.319236 -7.153371 14.567965 -21.145917 3.085929 -0.000003 -0.000001 0.000001 -1.151509 -1.377622 42.011500 3.350655 -5.948290 58.755070 -0.000001 -0.000001 0.000003 3.216453 -5.984194 48.257780 5.073537 -6.691738 74.310416 0.000002 -0.000001 0.000005 3.058743 -5.762492 55.288653 5.573867 -6.811585 78.564155 0.000000 0.000000 0.000004 6.070701 -7.597718 58.564569 5.251011 -6.738743 75.827872 -0.000002 -0.000001 -0.000002 -0.000002 0.000001 0.000000 0.000001 0.000000 -0.000001 0.000001 0.000000 -0.000001 0.000001 0.000000 -0.000001 0.000001 0.000000 -0.000001 0.000001 0.000000 -0.000000 0.000000 0.000000 0.000000 0.000001 0.000000 -0.000001 0.000001 0.000000 -0.000000 0.000000 0.000000 0.000000 -0.000001 -0.000000 0.000000 -0.000001 -0.000000 0.000000 -0.000000 -0.000001 0.000000 
3.203072 81.753128 0.291653 -3.293388 5.086269 -0.770335 0.000000 -0.000000 -0.000000 -8.621749 5.951572 1.567175 20.959489 -7.790381 5.361637 -8.286905 13.158161 -3.398052 -0.000000 0.000000 0.000000 -0.000000 0.000000 0.000000 -0.000000 0.000000 0.000000 -3.730123 -8.316665 -3.315024 11.273097 9.006654 -10.027963 0.040679 -20.439899 12.110461 -0.000000 -0.000000 -0.000000 -0.000000 -0.000000 -0.000000 0.000000 -0.000000 -0.000000 8.136579 0.542197 -1.521796 3.083986 0.251431 -0.649030 3.083893 0.249332 -0.650214 6.390891 -1.197295 -1.111509 6.355071 -5.452812 -6.885807 0.000003 0.000000 0.000000 0.000003 0.000000 0.000000 0.000003 0.000000 0.000000 0.591369 -2.798888 -10.175518 -14.122763 -33.310047 -62.911711 -0.000155 -72.209723 -0.000173 -30.962156 7.346606 7.841507 -2.593120 -2.768425 2.139531 4.213975 8.821081 0.377074 0.000001 0.000000 0.000000 -3.438602 1.714648 -58.504095 1.922674 4.777094 -43.827599 -0.000002 0.000000 -0.000002 -1.510939 2.455524 -54.477046 2.504076 5.314746 -50.430596 -0.000000 -0.000001 0.000002 0.818056 4.138074 -54.582302 2.442439 5.263434 -49.762115 -0.000000 0.000000 -0.000002 4.420063 6.781100 -52.487992 4.328079 2.304737 -68.238330 -0.000001 0.000000 -0.000002 0.000002 0.000001 0.000002 0.391164 6.440661 14.523344 -18.386116 41.969091 55.740354 0.000010 65.917555 -0.000018 -16.302480 -0.543079 -19.435293 -4.364052 4.216166 -7.389810 15.012394 -21.786248 3.220635 -0.000003 0.000001 -0.000000 -1.047209 -1.784623 44.654329 3.260993 -5.893210 57.885532 0.000000 0.000001 0.000000 2.958703 -5.724070 50.206945 4.955972 -6.657820 73.299104 -0.000000 0.000001 0.000002 2.987512 -5.713387 54.976783 5.492393 -6.794720 77.876567 -0.000001 0.000001 -0.000001 6.205749 -7.567515 60.292368 5.273527 -6.744369 76.019828 -0.000003 -0.000001 0.000000 -0.000001 -0.000001 -0.000001 0.000000 -0.000000 0.000000 0.000000 -0.000000 0.000000 0.000000 -0.000000 0.000000 0.000000 -0.000000 0.000000 0.000000 -0.000000 0.000000 0.000000 -0.000001 -0.000000 0.000000 -0.000000 0.000000 0.000000 -0.000000 0.000000 0.000000 -0.000001 -0.000000 0.000000 -0.000000 0.000000 0.000000 -0.000000 0.000000 0.000000 -0.000000 -0.000000 
3.196253 81.748093 0.253721 -3.265655 4.838401 -0.817335 -0.000000 0.000000 -0.000000 -8.677432 5.937577 1.581001 21.029763 -7.788922 5.396252 -8.309240 13.425131 -3.413201 -0.000000 0.000002 -0.000000 -0.000000 0.000002 -0.000000 0.000000 -0.000000 -0.000000 -3.858315 -8.274818 -3.283153 11.289790 9.031277 -10.028328 0.080841 -20.241682 12.111420 -0.000000 -0.000000 -0.000000 -0.000000 -0.000000 -0.000000 -0.000000 -0.000000 0.000001 8.106154 0.410895 -1.502900 3.077979 0.196802 -0.649529 3.077927 0.194468 -0.650427 6.367606 -1.225227 -1.062260 5.962012 -5.529854 -6.829658 -0.000001 0.000000 -0.000000 -0.000001 0.000000 -0.000000 -0.000001 0.000000 -0.000000 0.590708 -2.924131 -10.158500 -14.690074 -33.688354 -63.126965 -0.000061 -71.580239 -0.000057 -31.776192 6.416286 5.913798 -3.164023 -3.986528 3.275959 4.677512 10.461493 -0.144879 0.000001 0.000000 -0.000001 -3.173210 1.405860 -55.497766 1.680101 4.511716 -40.832746 0.000000 0.000001 -0.000002 -2.041108 1.857620 -52.855310 2.524307 5.331343 -50.648848 0.000000 -0.000001 0.000002 0.603343 3.896373 -53.091723 2.449552 5.269413 -49.839576 -0.000001 0.000001 -0.000004 4.215918 6.675981 -51.341825 4.323614 2.302981 -68.198305 -0.000001 0.000002 0.000002 0.000001 -0.000000 -0.000002 0.397675 6.299159 14.514968 -18.113701 41.172537 55.698666 0.000017 66.709727 -0.000028 -16.672114 0.418534 -20.117187 -4.259385 4.218631 -7.978124 15.256343 -22.134466 3.294962 -0.000002 0.000002 -0.000000 -0.830254 -2.242486 47.006615 3.167202 -5.833648 56.967835 -0.000001 -0.000001 0.000003 2.725978 -5.523997 52.082289 4.784424 -6.604292 71.813592 0.000001 0.000002 0.000004 2.890484 -5.645296 54.718175 5.342352 -6.760985 76.605291 -0.000002 0.000003 0.000002 6.308721 -7.540483 61.678316 5.287128 -6.747701 76.135606 0.000000 -0.000001 0.000000 -0.000003 -0.000001 -0.000005 -0.000001 0.000000 -0.000000 -0.000001 0.000000 -0.000000 -0.000001 0.000000 -0.000000 -0.000001 0.000000 -0.000000 -0.000001 0.000000 0.000000 -0.000001 -0.000000 -0.000000 -0.000001 0.000000 -0.000000 -0.000001 0.000000 0.000000 -0.000001 -0.000000 -0.000000 0.000000 -0.000000 0.000000 0.000000 -0.000000 0.000000 -0.000000 0.000000 -0.000000 
3.184090 81.742599 0.200685 -3.189200 4.697797 -0.816618 0.000000 -0.000000 -0.000000 -8.789461 5.897877 1.544415 21.055610 -7.786029 5.427357 -8.278186 13.609861 -3.432922 -0.000000 0.000000 0.000000 -0.000000 0.000000 -0.000000 0.000000 -0.000000 -0.000000 -4.005263 -8.225230 -3.305802 11.264310 9.038172 -10.027848 0.154883 -20.135994 12.215332 -0.000000 0.000001 0.000000 -0.000000 0.000001 0.000000 -0.000000 0.000001 -0.000001 8.081884 0.304744 -1.498717 3.075096 0.152772 -0.653119 3.075059 0.150328 -0.653790 6.325957 -1.247023 -1.006743 5.592185 -5.571411 -6.778865 0.000002 -0.000000 -0.000002 0.000002 -0.000000 -0.000002 0.000002 -0.000000 -0.000002 0.590255 -3.024514 -10.155071 -15.368337 -34.156615 -63.347949 -0.000060 -70.781510 -0.000049 -32.781899 5.154638 3.550260 -3.672098 -5.126206 4.183442 5.237352 12.288360 -0.742950 -0.000000 -0.000000 -0.000001 -3.035919 1.230546 -53.771050 1.491157 4.284006 -38.369250 -0.000001 -0.000001 -0.000002 -2.523682 1.320253 -51.731078 2.523837 5.330967 -50.643783 0.000000 -0.000001 0.000000 0.383415 3.656937 -51.943117 2.459953 5.278159 -49.952872 0.000001 0.000001 -0.000005 4.098532 6.613662 -50.643882 4.322021 2.302331 -68.184228 -0.000000 0.000000 0.000003 -0.000001 -0.000001 0.000001 0.402509 6.201617 14.476542 -17.611247 40.226379 55.423498 0.000008 67.832658 -0.000009 -16.649510 0.982627 -20.180545 -4.125173 4.197045 -8.675726 15.295415 -22.190018 3.306931 0.000002 0.000001 -0.000000 -0.567955 -2.603159 48.250775 3.098889 -5.788856 56.293002 -0.000000 0.000001 0.000005 2.597621 -5.430413 53.554171 4.558799 -6.526352 69.840426 -0.000000 0.000001 -0.000002 2.841436 -5.610155 54.432240 5.122261 -6.705154 74.728348 0.000001 0.000000 0.000004 6.375313 -7.526914 62.509379 5.293792 -6.749345 76.192434 -0.000000 0.000001 -0.000005 0.000000 -0.000003 -0.000004 0.000001 0.000000 -0.000000 0.000001 0.000000 -0.000000 0.000001 0.000000 -0.000000 0.000001 0.000000 -0.000000 0.000001 0.000000 -0.000000 0.000001 0.000000 -0.000001 0.000001 0.000000 -0.000000 0.000001 0.000000 -0.000000 0.000001 0.000000 -0.000001 0.000001 0.000000 0.000000 0.000001 0.000000 0.000000 0.000000 -0.000000 -0.000000 
